<mxfile host="65bd71144e">
    <diagram id="_A0lb_RUqAJIpLxWKF-y" name="Page-1">
        <mxGraphModel dx="1512" dy="969" grid="1" gridSize="10" guides="1" tooltips="1" connect="1" arrows="1" fold="1" page="1" pageScale="1" pageWidth="850" pageHeight="1100" math="0" shadow="0">
            <root>
                <mxCell id="0"/>
                <mxCell id="1" parent="0"/>
                <mxCell id="2" value="" style="shape=ext;double=1;rounded=1;whiteSpace=wrap;html=1;" parent="1" vertex="1">
                    <mxGeometry x="30" y="80" width="360" height="800" as="geometry"/>
                </mxCell>
                <mxCell id="3" value="Welcome To ReQuiz" style="text;strokeColor=none;fillColor=none;html=1;fontSize=24;fontStyle=1;verticalAlign=middle;align=center;" parent="1" vertex="1">
                    <mxGeometry x="85" y="150" width="250" height="40" as="geometry"/>
                </mxCell>
                <mxCell id="4" value="" style="shape=ext;double=1;rounded=1;whiteSpace=wrap;html=1;" parent="1" vertex="1">
                    <mxGeometry x="50" y="300" width="320" height="470" as="geometry"/>
                </mxCell>
                <mxCell id="5" value="" style="shape=ext;double=1;rounded=1;whiteSpace=wrap;html=1;" parent="1" vertex="1">
                    <mxGeometry x="70" y="370" width="283" height="50" as="geometry"/>
                </mxCell>
                <mxCell id="6" value="" style="shape=ext;double=1;rounded=1;whiteSpace=wrap;html=1;" parent="1" vertex="1">
                    <mxGeometry x="70" y="440" width="283" height="50" as="geometry"/>
                </mxCell>
                <mxCell id="7" value="Email" style="text;strokeColor=none;fillColor=none;html=1;fontSize=17;fontStyle=0;verticalAlign=middle;align=left;fontColor=#999999;" parent="1" vertex="1">
                    <mxGeometry x="85" y="375" width="255" height="40" as="geometry"/>
                </mxCell>
                <mxCell id="8" value="Password" style="text;strokeColor=none;fillColor=none;html=1;fontSize=17;fontStyle=0;verticalAlign=middle;align=left;fontColor=#999999;" parent="1" vertex="1">
                    <mxGeometry x="84" y="445" width="255" height="40" as="geometry"/>
                </mxCell>
                <mxCell id="9" value="" style="shape=ext;double=1;rounded=1;whiteSpace=wrap;html=1;fontSize=17;fontColor=#999999;" parent="1" vertex="1">
                    <mxGeometry x="103.75" y="520" width="145" height="50" as="geometry"/>
                </mxCell>
                <mxCell id="10" value="Login" style="text;strokeColor=none;fillColor=none;html=1;fontSize=17;fontStyle=0;verticalAlign=middle;align=center;fontColor=#999999;" parent="1" vertex="1">
                    <mxGeometry x="131.25" y="525" width="90" height="40" as="geometry"/>
                </mxCell>
                <mxCell id="11" value="" style="shape=ext;double=1;rounded=1;whiteSpace=wrap;html=1;fontSize=17;fontColor=#999999;" parent="1" vertex="1">
                    <mxGeometry x="95" y="590" width="230" height="50" as="geometry"/>
                </mxCell>
                <mxCell id="12" value="Sign Up Instead" style="text;strokeColor=none;fillColor=none;html=1;fontSize=17;fontStyle=0;verticalAlign=middle;align=center;fontColor=#999999;" parent="1" vertex="1">
                    <mxGeometry x="167.5" y="595" width="85" height="40" as="geometry"/>
                </mxCell>
                <mxCell id="13" value="" style="ellipse;shape=doubleEllipse;whiteSpace=wrap;html=1;aspect=fixed;fontSize=17;fontColor=#999999;" parent="1" vertex="1">
                    <mxGeometry x="266.25" y="520" width="50" height="50" as="geometry"/>
                </mxCell>
                <mxCell id="14" value="" style="shape=ext;double=1;rounded=1;whiteSpace=wrap;html=1;" parent="1" vertex="1">
                    <mxGeometry x="440" y="80" width="360" height="800" as="geometry"/>
                </mxCell>
                <mxCell id="15" value="Welcome To ReQuiz" style="text;strokeColor=none;fillColor=none;html=1;fontSize=24;fontStyle=1;verticalAlign=middle;align=center;" parent="1" vertex="1">
                    <mxGeometry x="495" y="150" width="250" height="40" as="geometry"/>
                </mxCell>
                <mxCell id="16" value="" style="shape=ext;double=1;rounded=1;whiteSpace=wrap;html=1;" parent="1" vertex="1">
                    <mxGeometry x="460" y="300" width="320" height="470" as="geometry"/>
                </mxCell>
                <mxCell id="17" value="" style="shape=ext;double=1;rounded=1;whiteSpace=wrap;html=1;" parent="1" vertex="1">
                    <mxGeometry x="480" y="370" width="283" height="50" as="geometry"/>
                </mxCell>
                <mxCell id="18" value="" style="shape=ext;double=1;rounded=1;whiteSpace=wrap;html=1;" parent="1" vertex="1">
                    <mxGeometry x="480" y="440" width="283" height="50" as="geometry"/>
                </mxCell>
                <mxCell id="19" value="Email" style="text;strokeColor=none;fillColor=none;html=1;fontSize=17;fontStyle=0;verticalAlign=middle;align=left;fontColor=#999999;" parent="1" vertex="1">
                    <mxGeometry x="495" y="375" width="255" height="40" as="geometry"/>
                </mxCell>
                <mxCell id="20" value="Password" style="text;strokeColor=none;fillColor=none;html=1;fontSize=17;fontStyle=0;verticalAlign=middle;align=left;fontColor=#999999;" parent="1" vertex="1">
                    <mxGeometry x="494" y="445" width="255" height="40" as="geometry"/>
                </mxCell>
                <mxCell id="21" value="" style="shape=ext;double=1;rounded=1;whiteSpace=wrap;html=1;fontSize=17;fontColor=#999999;" parent="1" vertex="1">
                    <mxGeometry x="506.88" y="610" width="226.25" height="50" as="geometry"/>
                </mxCell>
                <mxCell id="22" value="Sign Up" style="text;strokeColor=none;fillColor=none;html=1;fontSize=17;fontStyle=0;verticalAlign=middle;align=center;fontColor=#999999;" parent="1" vertex="1">
                    <mxGeometry x="575" y="615" width="90" height="40" as="geometry"/>
                </mxCell>
                <mxCell id="23" value="" style="shape=ext;double=1;rounded=1;whiteSpace=wrap;html=1;fontSize=17;fontColor=#999999;" parent="1" vertex="1">
                    <mxGeometry x="505" y="680" width="230" height="50" as="geometry"/>
                </mxCell>
                <mxCell id="24" value="Log In Instead" style="text;strokeColor=none;fillColor=none;html=1;fontSize=17;fontStyle=0;verticalAlign=middle;align=center;fontColor=#999999;" parent="1" vertex="1">
                    <mxGeometry x="577.5" y="685" width="85" height="40" as="geometry"/>
                </mxCell>
                <mxCell id="26" value="" style="shape=ext;double=1;rounded=1;whiteSpace=wrap;html=1;" parent="1" vertex="1">
                    <mxGeometry x="478.5" y="510" width="283" height="50" as="geometry"/>
                </mxCell>
                <mxCell id="27" value="Confrim Password" style="text;strokeColor=none;fillColor=none;html=1;fontSize=17;fontStyle=0;verticalAlign=middle;align=left;fontColor=#999999;" parent="1" vertex="1">
                    <mxGeometry x="492.5" y="515" width="255" height="40" as="geometry"/>
                </mxCell>
            </root>
        </mxGraphModel>
    </diagram>
</mxfile>